<?xml version="1.0" encoding="UTF-8"?>
<svg id="Layer_2" data-name="Layer 2" xmlns="http://www.w3.org/2000/svg" xmlns:xlink="http://www.w3.org/1999/xlink" viewBox="0 0 235.6 250">
  <defs>
    <style>
      .cls-1 {
        fill: url(#linear-gradient-15);
      }

      .cls-2 {
        fill: url(#linear-gradient-13);
      }

      .cls-3 {
        fill: url(#linear-gradient-28);
      }

      .cls-4 {
        fill: url(#linear-gradient-53);
      }

      .cls-5 {
        fill: url(#linear-gradient-42);
      }

      .cls-6 {
        fill: #8269dd;
      }

      .cls-7 {
        fill: url(#linear-gradient-46);
      }

      .cls-8 {
        fill: url(#linear-gradient-2);
      }

      .cls-9 {
        fill: url(#linear-gradient-56);
      }

      .cls-10 {
        fill: url(#linear-gradient-43);
      }

      .cls-11 {
        fill: url(#linear-gradient-25);
      }

      .cls-12 {
        fill: url(#linear-gradient-10);
      }

      .cls-13 {
        fill: url(#linear-gradient-12);
      }

      .cls-14 {
        fill: url(#linear-gradient-40);
      }

      .cls-15 {
        fill: url(#linear-gradient-27);
      }

      .cls-16 {
        fill: url(#linear-gradient-37);
      }

      .cls-17 {
        fill: url(#linear-gradient-55);
      }

      .cls-18 {
        fill: #fff;
      }

      .cls-19 {
        fill: url(#linear-gradient-39);
      }

      .cls-20 {
        fill: url(#linear-gradient-52);
      }

      .cls-21 {
        fill: url(#linear-gradient-47);
      }

      .cls-22 {
        fill: url(#linear-gradient-26);
      }

      .cls-23 {
        fill: url(#linear-gradient-4);
      }

      .cls-24 {
        fill: url(#linear-gradient-35);
      }

      .cls-25 {
        fill: url(#linear-gradient-30);
      }

      .cls-26 {
        fill: url(#linear-gradient-44);
      }

      .cls-27 {
        fill: url(#linear-gradient-49);
      }

      .cls-28 {
        fill: url(#linear-gradient-3);
      }

      .cls-29 {
        fill: url(#linear-gradient-34);
      }

      .cls-30 {
        fill: url(#linear-gradient-5);
      }

      .cls-31 {
        fill: url(#linear-gradient-38);
      }

      .cls-32 {
        fill: url(#linear-gradient-22);
      }

      .cls-33 {
        fill: url(#linear-gradient-24);
      }

      .cls-34 {
        fill: url(#linear-gradient-54);
      }

      .cls-35 {
        fill: url(#linear-gradient-33);
      }

      .cls-36 {
        fill: url(#linear-gradient-51);
      }

      .cls-37 {
        fill: url(#linear-gradient-8);
      }

      .cls-38 {
        fill: url(#linear-gradient-57);
      }

      .cls-39 {
        fill: url(#linear-gradient-14);
      }

      .cls-40 {
        fill: url(#linear-gradient-29);
      }

      .cls-41 {
        fill: url(#linear-gradient-20);
      }

      .cls-42 {
        fill: url(#linear-gradient-17);
      }

      .cls-43 {
        fill: url(#linear-gradient-50);
      }

      .cls-44 {
        fill: url(#linear-gradient-7);
      }

      .cls-45 {
        fill: url(#linear-gradient-9);
      }

      .cls-46 {
        fill: url(#linear-gradient-11);
      }

      .cls-47 {
        fill: url(#linear-gradient-19);
      }

      .cls-48 {
        fill: url(#linear-gradient-6);
      }

      .cls-49 {
        fill: url(#linear-gradient-36);
      }

      .cls-50 {
        fill: url(#linear-gradient-21);
      }

      .cls-51 {
        fill: url(#linear-gradient-45);
      }

      .cls-52 {
        fill: #171e2c;
      }

      .cls-53 {
        fill: url(#linear-gradient-48);
      }

      .cls-54 {
        fill: url(#linear-gradient-32);
      }

      .cls-55 {
        fill: url(#linear-gradient-41);
      }

      .cls-56 {
        fill: url(#linear-gradient-16);
      }

      .cls-57 {
        fill: url(#linear-gradient);
      }

      .cls-58 {
        fill: url(#linear-gradient-23);
      }

      .cls-59 {
        fill: url(#linear-gradient-31);
      }

      .cls-60 {
        fill: #8453d2;
      }

      .cls-61 {
        fill: url(#linear-gradient-18);
      }
    </style>
    <linearGradient id="linear-gradient" x1="174.34" y1="236.93" x2="50.46" y2="32.14" gradientUnits="userSpaceOnUse">
      <stop offset="0" stop-color="#8453d2"/>
      <stop offset=".55" stop-color="#7ca8ff"/>
      <stop offset="1" stop-color="#00fff0"/>
    </linearGradient>
    <linearGradient id="linear-gradient-2" x1="222.05" y1="208.07" x2="98.17" y2="3.28" xlink:href="#linear-gradient"/>
    <linearGradient id="linear-gradient-3" x1="175.4" y1="236.29" x2="51.52" y2="31.5" xlink:href="#linear-gradient"/>
    <linearGradient id="linear-gradient-4" x1="174.61" y1="236.76" x2="50.74" y2="31.97" xlink:href="#linear-gradient"/>
    <linearGradient id="linear-gradient-5" x1="182.74" y1="231.85" x2="58.86" y2="27.06" xlink:href="#linear-gradient"/>
    <linearGradient id="linear-gradient-6" x1="185.65" y1="230.09" x2="61.77" y2="25.3" xlink:href="#linear-gradient"/>
    <linearGradient id="linear-gradient-7" x1="217.6" y1="210.76" x2="93.72" y2="5.97" xlink:href="#linear-gradient"/>
    <linearGradient id="linear-gradient-8" x1="216.52" y1="211.41" x2="92.65" y2="6.62" xlink:href="#linear-gradient"/>
    <linearGradient id="linear-gradient-9" x1="156.5" y1="247.72" x2="32.62" y2="42.93" xlink:href="#linear-gradient"/>
    <linearGradient id="linear-gradient-10" x1="154.48" y1="248.94" x2="30.6" y2="44.15" xlink:href="#linear-gradient"/>
    <linearGradient id="linear-gradient-11" x1="132.92" y1="261.98" x2="9.04" y2="57.2" xlink:href="#linear-gradient"/>
    <linearGradient id="linear-gradient-12" x1="145.12" y1="254.6" x2="21.25" y2="49.81" xlink:href="#linear-gradient"/>
    <linearGradient id="linear-gradient-13" x1="108.87" y1="276.53" x2="-15" y2="71.74" xlink:href="#linear-gradient"/>
    <linearGradient id="linear-gradient-14" x1="127.77" y1="265.1" x2="3.89" y2="60.31" xlink:href="#linear-gradient"/>
    <linearGradient id="linear-gradient-15" x1="119.2" y1="270.28" x2="-4.67" y2="65.49" xlink:href="#linear-gradient"/>
    <linearGradient id="linear-gradient-16" x1="205.68" y1="217.97" x2="81.81" y2="13.18" xlink:href="#linear-gradient"/>
    <linearGradient id="linear-gradient-17" x1="224.23" y1="206.75" x2="100.35" y2="1.96" xlink:href="#linear-gradient"/>
    <linearGradient id="linear-gradient-18" x1="218.71" y1="210.09" x2="94.84" y2="5.3" xlink:href="#linear-gradient"/>
    <linearGradient id="linear-gradient-19" x1="157.93" y1="246.85" x2="34.06" y2="42.06" xlink:href="#linear-gradient"/>
    <linearGradient id="linear-gradient-20" x1="151.78" y1="250.57" x2="27.9" y2="45.79" xlink:href="#linear-gradient"/>
    <linearGradient id="linear-gradient-21" x1="151.66" y1="250.65" x2="27.78" y2="45.86" xlink:href="#linear-gradient"/>
    <linearGradient id="linear-gradient-22" x1="127.9" y1="265.02" x2="4.02" y2="60.23" xlink:href="#linear-gradient"/>
    <linearGradient id="linear-gradient-23" x1="128.17" y1="264.85" x2="4.3" y2="60.07" xlink:href="#linear-gradient"/>
    <linearGradient id="linear-gradient-24" x1="232.01" y1="202.05" x2="108.13" y2="-2.74" xlink:href="#linear-gradient"/>
    <linearGradient id="linear-gradient-25" x1="235.79" y1="199.76" x2="111.91" y2="-5.03" xlink:href="#linear-gradient"/>
    <linearGradient id="linear-gradient-26" x1="182.51" y1="231.98" x2="58.64" y2="27.2" xlink:href="#linear-gradient"/>
    <linearGradient id="linear-gradient-27" x1="187.98" y1="228.67" x2="64.11" y2="23.89" xlink:href="#linear-gradient"/>
    <linearGradient id="linear-gradient-28" x1="187.98" y1="228.67" x2="64.11" y2="23.89" xlink:href="#linear-gradient"/>
    <linearGradient id="linear-gradient-29" x1="188.09" y1="228.61" x2="64.21" y2="23.82" xlink:href="#linear-gradient"/>
    <linearGradient id="linear-gradient-30" x1="188.09" y1="228.61" x2="64.21" y2="23.82" xlink:href="#linear-gradient"/>
    <linearGradient id="linear-gradient-31" x1="212.31" y1="213.96" x2="88.44" y2="9.17" xlink:href="#linear-gradient"/>
    <linearGradient id="linear-gradient-32" x1="212.31" y1="213.96" x2="88.44" y2="9.17" xlink:href="#linear-gradient"/>
    <linearGradient id="linear-gradient-33" x1="255.74" y1="187.69" x2="131.87" y2="-17.1" xlink:href="#linear-gradient"/>
    <linearGradient id="linear-gradient-34" x1="264.21" y1="182.56" x2="140.34" y2="-22.23" xlink:href="#linear-gradient"/>
    <linearGradient id="linear-gradient-35" x1="256.52" y1="187.21" x2="132.65" y2="-17.57" xlink:href="#linear-gradient"/>
    <linearGradient id="linear-gradient-36" x1="262.38" y1="183.67" x2="138.5" y2="-21.11" xlink:href="#linear-gradient"/>
    <linearGradient id="linear-gradient-37" x1="247.67" y1="192.57" x2="123.79" y2="-12.22" xlink:href="#linear-gradient"/>
    <linearGradient id="linear-gradient-38" x1="245.52" y1="193.87" x2="121.65" y2="-10.92" xlink:href="#linear-gradient"/>
    <linearGradient id="linear-gradient-39" x1="182.51" y1="231.98" x2="58.64" y2="27.19" xlink:href="#linear-gradient"/>
    <linearGradient id="linear-gradient-40" x1="158.6" y1="246.45" x2="34.73" y2="41.66" xlink:href="#linear-gradient"/>
    <linearGradient id="linear-gradient-41" x1="224.87" y1="206.36" x2="100.99" y2="1.58" xlink:href="#linear-gradient"/>
    <linearGradient id="linear-gradient-42" x1="211.64" y1="214.37" x2="87.76" y2="9.58" xlink:href="#linear-gradient"/>
    <linearGradient id="linear-gradient-43" x1="190.91" y1="226.9" x2="67.03" y2="22.12" xlink:href="#linear-gradient"/>
    <linearGradient id="linear-gradient-44" x1="201.38" y1="220.57" x2="77.51" y2="15.78" xlink:href="#linear-gradient"/>
    <linearGradient id="linear-gradient-45" x1="195.97" y1="223.84" x2="72.1" y2="19.05" xlink:href="#linear-gradient"/>
    <linearGradient id="linear-gradient-46" x1="219.1" y1="209.85" x2="95.23" y2="5.06" xlink:href="#linear-gradient"/>
    <linearGradient id="linear-gradient-47" x1="222.48" y1="207.81" x2="98.6" y2="3.02" xlink:href="#linear-gradient"/>
    <linearGradient id="linear-gradient-48" x1="231.52" y1="202.34" x2="107.64" y2="-2.45" xlink:href="#linear-gradient"/>
    <linearGradient id="linear-gradient-49" x1="230.58" y1="202.91" x2="106.7" y2="-1.88" xlink:href="#linear-gradient"/>
    <linearGradient id="linear-gradient-50" x1="215.49" y1="212.04" x2="91.61" y2="7.25" xlink:href="#linear-gradient"/>
    <linearGradient id="linear-gradient-51" x1="221.75" y1="208.25" x2="97.87" y2="3.46" xlink:href="#linear-gradient"/>
    <linearGradient id="linear-gradient-52" x1="216.16" y1="211.63" x2="92.28" y2="6.84" xlink:href="#linear-gradient"/>
    <linearGradient id="linear-gradient-53" x1="205.03" y1="218.36" x2="81.15" y2="13.58" xlink:href="#linear-gradient"/>
    <linearGradient id="linear-gradient-54" x1="200.88" y1="220.87" x2="77" y2="16.08" xlink:href="#linear-gradient"/>
    <linearGradient id="linear-gradient-55" x1="200.23" y1="221.27" x2="76.35" y2="16.48" xlink:href="#linear-gradient"/>
    <linearGradient id="linear-gradient-56" x1="192.01" y1="226.24" x2="68.13" y2="21.45" xlink:href="#linear-gradient"/>
    <linearGradient id="linear-gradient-57" x1="196.78" y1="223.36" x2="72.9" y2="18.57" xlink:href="#linear-gradient"/>
  </defs>
  <g id="Layer_5" data-name="Layer 5">
    <g>
      <g>
        <path class="cls-52" d="M117.8,249.49c-10.89,0-21.78-2.8-31.49-8.41l-53.3-30.77C13.59,199.1,1.53,178.2,1.53,155.77v-61.55c0-22.43,12.06-43.32,31.49-54.53l53.3-30.77c19.42-11.21,43.55-11.21,62.97,0l53.3,30.77c19.42,11.21,31.49,32.11,31.49,54.53v61.55c0,22.43-12.06,43.32-31.49,54.53l-53.3,30.77c-9.71,5.61-20.6,8.41-31.49,8.41Z"/>
        <path class="cls-60" d="M117.8,250c-11.16,0-22.13-2.93-31.74-8.48l-53.3-30.77C13.18,199.45,1.02,178.38,1.02,155.77v-61.55c0-22.61,12.16-43.67,31.74-54.98l53.3-30.77c19.58-11.31,43.9-11.3,63.48,0l53.3,30.77c19.58,11.3,31.74,32.37,31.74,54.98v61.55c0,22.61-12.16,43.67-31.74,54.98l-53.3,30.77c-9.61,5.55-20.58,8.48-31.74,8.48ZM117.8,1.02c-10.8,0-21.6,2.78-31.23,8.34l-53.3,30.77C14,51.25,2.04,71.98,2.04,94.23v61.55c0,22.24,11.97,42.97,31.23,54.09l53.3,30.77c9.45,5.46,20.25,8.34,31.23,8.34s21.78-2.88,31.23-8.34l53.3-30.77c19.26-11.12,31.23-31.85,31.23-54.09v-61.55c0-22.24-11.97-42.97-31.23-54.09l-53.3-30.77c-9.63-5.56-20.43-8.34-31.23-8.34Z"/>
      </g>
      <g>
        <path class="cls-52" d="M117.8,237.61c-9.85,0-19.7-2.54-28.48-7.61l-48.21-27.84c-17.57-10.14-28.48-29.05-28.48-49.33v-55.67c0-20.29,10.91-39.19,28.48-49.33l48.21-27.84c17.57-10.14,39.4-10.14,56.96,0l48.21,27.84c17.57,10.14,28.48,29.05,28.48,49.33v55.67c0,20.29-10.91,39.19-28.48,49.33l-48.21,27.84c-8.78,5.07-18.63,7.61-28.48,7.61Z"/>
        <g>
          <path class="cls-18" d="M73.77,200.96h-5.37l-1.25,4.32h-2.88l5.2-15.98h3.32l5.2,15.98h-2.98l-1.25-4.32ZM73.14,198.74l-.56-1.95c-.51-1.69-.98-3.52-1.44-5.28h-.1c-.44,1.78-.9,3.59-1.42,5.28l-.56,1.95h4.08Z"/>
          <path class="cls-18" d="M79.98,189.3h2.83v15.98h-2.83v-15.98Z"/>
          <path class="cls-18" d="M99.18,200.96h-5.37l-1.25,4.32h-2.88l5.2-15.98h3.32l5.2,15.98h-2.98l-1.25-4.32ZM98.54,198.74l-.56-1.95c-.51-1.69-.98-3.52-1.44-5.28h-.1c-.44,1.78-.9,3.59-1.42,5.28l-.56,1.95h4.08Z"/>
          <path class="cls-18" d="M103.8,189.3h2.91l1.39,8.06c.27,1.71.54,3.42.78,5.11h.1c.34-1.69.68-3.42,1.05-5.11l1.95-8.06h2.47l1.96,8.06c.37,1.66.71,3.4,1.07,5.11h.1c.24-1.71.51-3.42.76-5.11l1.39-8.06h2.71l-3.05,15.98h-3.52l-1.98-8.4c-.27-1.25-.51-2.47-.71-3.69h-.1c-.22,1.22-.46,2.44-.73,3.69l-1.93,8.4h-3.44l-3.18-15.98Z"/>
          <path class="cls-18" d="M123.73,203.23l1.66-1.93c1.15,1.07,2.69,1.81,4.15,1.81,1.81,0,2.78-.81,2.78-2.05,0-1.32-1.03-1.73-2.47-2.35l-2.2-.95c-1.56-.66-3.22-1.91-3.22-4.25,0-2.54,2.25-4.5,5.37-4.5,1.86,0,3.67.78,4.91,2.03l-1.44,1.81c-1.03-.86-2.1-1.37-3.47-1.37-1.51,0-2.52.71-2.52,1.88,0,1.25,1.22,1.71,2.54,2.25l2.17.9c1.88.81,3.22,2,3.22,4.33,0,2.59-2.15,4.74-5.74,4.74-2.15,0-4.25-.85-5.77-2.35Z"/>
          <path class="cls-18" d="M142.96,198.27v-8.97h2.83v9.19c0,3.47,1.3,4.62,3.23,4.62s3.32-1.15,3.32-4.62v-9.19h2.71v8.97c0,5.25-2.32,7.31-6.03,7.31s-6.06-2.05-6.06-7.31Z"/>
          <path class="cls-18" d="M158.2,197.34c0-5.23,3.3-8.33,7.55-8.33,2.27,0,3.84,1,4.84,2.03l-1.51,1.83c-.81-.78-1.73-1.39-3.23-1.39-2.83,0-4.74,2.2-4.74,5.79s1.69,5.84,4.89,5.84c.9,0,1.78-.24,2.3-.71v-3.45h-3.03v-2.32h5.57v7.04c-1.07,1.07-2.93,1.91-5.11,1.91-4.32,0-7.53-2.93-7.53-8.23Z"/>
        </g>
        <g>
          <path class="cls-6" d="M92.92,220.08c0-2.4,1.5-3.82,3.35-3.82.92,0,1.66.44,2.12.93l-.69.84c-.38-.38-.82-.64-1.39-.64-1.2,0-2.05,1.01-2.05,2.65s.78,2.68,2.02,2.68c.65,0,1.15-.3,1.57-.75l.69.82c-.59.68-1.37,1.06-2.31,1.06-1.85,0-3.3-1.34-3.3-3.77Z"/>
          <path class="cls-6" d="M99,220.02c0-2.36,1.32-3.76,3.23-3.76s3.24,1.4,3.24,3.76-1.32,3.83-3.24,3.83-3.23-1.46-3.23-3.83ZM104.12,220.02c0-1.63-.74-2.63-1.89-2.63s-1.89,1-1.89,2.63.74,2.7,1.89,2.7,1.89-1.05,1.89-2.7Z"/>
          <path class="cls-6" d="M106.93,216.39h1.3v6.23h3.05v1.1h-4.35v-7.32Z"/>
          <path class="cls-6" d="M111.82,220.02c0-2.36,1.32-3.76,3.23-3.76s3.24,1.4,3.24,3.76-1.32,3.83-3.24,3.83-3.23-1.46-3.23-3.83ZM116.94,220.02c0-1.63-.74-2.63-1.89-2.63s-1.89,1-1.89,2.63.74,2.7,1.89,2.7,1.89-1.05,1.89-2.7Z"/>
          <path class="cls-6" d="M119.75,216.39h1.47l1.3,3.58c.16.46.31.95.47,1.43h.04c.16-.48.3-.97.46-1.43l1.27-3.58h1.48v7.32h-1.2v-3.35c0-.68.1-1.66.17-2.33h-.04l-.59,1.7-1.2,3.29h-.77l-1.21-3.29-.58-1.7h-.04c.06.67.17,1.65.17,2.33v3.35h-1.18v-7.32Z"/>
          <path class="cls-6" d="M128.09,216.39h2.34c1.51,0,2.62.46,2.62,1.8,0,.69-.38,1.37-1.02,1.59v.04c.81.18,1.4.75,1.4,1.74,0,1.47-1.2,2.15-2.81,2.15h-2.53v-7.32ZM130.32,219.42c1.02,0,1.46-.4,1.46-1.03,0-.72-.48-.99-1.43-.99h-.95v2.02h.93ZM130.49,222.71c1.07,0,1.68-.39,1.68-1.21,0-.77-.58-1.11-1.68-1.11h-1.1v2.32h1.1Z"/>
          <path class="cls-6" d="M134.78,216.39h1.3v7.32h-1.3v-7.32Z"/>
          <path class="cls-6" d="M141.34,221.73h-2.46l-.57,1.98h-1.32l2.39-7.32h1.52l2.39,7.32h-1.37l-.57-1.98ZM141.05,220.72l-.26-.9c-.24-.77-.45-1.61-.66-2.42h-.04c-.2.82-.41,1.65-.65,2.42l-.26.9h1.87Z"/>
        </g>
      </g>
      <g>
        <g>
          <g>
            <path class="cls-57" d="M117.89,119.66c-28.11,0-50.14-6.49-50.14-14.78,0-7.75,18.9-13.93,44.94-14.7.39,0,.72.3.73.69s-.3.72-.69.73c-24.42.72-43.56,6.55-43.56,13.28,0,7.24,22.31,13.35,48.71,13.35,2.77,0,5.55-.07,8.27-.2.35-.02.73.28.74.68.02.39-.28.73-.68.74-2.75.13-5.55.2-8.34.2Z"/>
            <path class="cls-8" d="M156.48,114.31c-.28,0-.54-.17-.66-.44-.15-.36.02-.78.39-.93,8.59-3.55,10.39-6.34,10.39-8.06,0-2.5-2.81-4.56-5.17-5.85-.34-.19-.47-.62-.28-.97.19-.34.62-.47.97-.28,3.92,2.15,5.91,4.54,5.91,7.1,0,3.17-3.69,6.24-11.27,9.38-.09.04-.18.05-.27.05Z"/>
            <path class="cls-28" d="M73.24,111.63c-.1,0-.21-.02-.31-.07-.35-.17-.5-.6-.33-.95,6.52-13.33,44.11-12.94,45.71-12.91.39,0,.71.33.7.72,0,.39-.32.7-.71.7-.03,0-.18,0-.55,0-4.67,0-38.15.42-43.87,12.12-.12.25-.38.4-.64.4Z"/>
            <path class="cls-23" d="M99.71,112.37c-.25,0-.5-.13-.63-.37-.75-1.38-.84-2.76-.26-4.1.81-1.88,2.82-3.33,4.89-4.29-5.78.73-16.12,2.82-20.19,6.21-.3.25-.75.21-1-.09-.25-.3-.21-.75.09-1,5.84-4.86,24.12-7.5,25.68-6.66.26.14.45.49.42.78-.07.57-.58.81-1.98,1.18-2.64.71-5.7,2.35-6.6,4.44-.4.93-.33,1.86.2,2.85.19.35.06.78-.29.97-.11.06-.22.09-.34.09Z"/>
            <path class="cls-30" d="M117.86,116.66h-.02c-6.59-.23-11-1.56-13.12-3.95-1.27-1.44-1.2-2.72-1.19-2.86.03-.39.37-.69.77-.65.39.03.67.37.65.76,0,.05-.02.88.89,1.87,1.29,1.41,4.43,3.14,12.04,3.4.39.01.7.34.69.74-.01.38-.33.69-.71.69Z"/>
            <path class="cls-48" d="M116.22,167.18c-14.3,0-25.73-4.52-33.96-13.44-16.73-18.12-14.53-48.62-14.5-48.92.03-.39.36-.68.77-.65.39.03.68.37.65.77-.02.3-2.18,30.2,14.13,47.85,7.95,8.61,19.03,12.97,32.91,12.97,15.24,0,27.31-4.68,35.89-13.92,16.47-17.74,14.52-46.62,14.5-46.91-.03-.39.26-.73.66-.76.39-.04.73.26.76.66.02.3,2.02,29.77-14.87,47.98-8.85,9.54-21.28,14.38-36.94,14.38Z"/>
            <path class="cls-44" d="M159.03,148.27c-1.32,0-2.14-.1-2.26-.12-.39-.05-.66-.41-.61-.8.05-.39.42-.66.8-.61.13.02,12.97,1.59,24.1-9.41,5-4.95,6.13-11.98,2.86-17.92-3.25-5.9-9.67-8.72-16.35-7.19-.39.08-.77-.15-.85-.53-.09-.38.15-.77.53-.85,7.32-1.68,14.36,1.42,17.92,7.89,3.58,6.51,2.36,14.21-3.11,19.62-8.93,8.83-18.7,9.93-23.03,9.93Z"/>
            <path class="cls-37" d="M160.77,140.85c-.31,0-.59-.2-.68-.52-.11-.38.11-.77.49-.88.15-.04,15.05-4.43,15.05-13.43,0-1.78-.53-3.06-1.57-3.81-2.55-1.82-7.4-.19-7.45-.17-.37.13-.78-.07-.9-.44s.07-.78.44-.9c.23-.08,5.59-1.89,8.74.36,1.44,1.03,2.17,2.7,2.17,4.97,0,10.08-15.43,14.61-16.08,14.8-.07.02-.13.03-.2.03Z"/>
            <path class="cls-45" d="M86.49,138.89c-.26,0-.51-.14-.63-.39-4.31-8.4-4-14.71-3.8-18.88.02-.39.38-.7.75-.68.39.02.69.35.68.75-.19,4.02-.49,10.1,3.65,18.16.18.35.04.78-.31.96-.1.05-.21.08-.32.08Z"/>
            <path class="cls-12" d="M93.41,147.6c-.16,0-.33-.06-.46-.17-2.6-2.2-4.02-4.38-4.08-4.47-.21-.33-.12-.77.21-.98.33-.21.77-.12.99.21.01.02,1.38,2.1,3.81,4.16.3.25.34.7.08,1-.14.17-.34.25-.54.25Z"/>
          </g>
          <path class="cls-46" d="M37.21,90.81h-16.6c-.42,0-.76-.34-.76-.76s.34-.76.76-.76h16.6c.42,0,.76.34.76.76s-.34.76-.76.76Z"/>
          <path class="cls-13" d="M56.9,99.16h-12.53c-.42,0-.76-.34-.76-.76s.34-.76.76-.76h12.53c.42,0,.76.34.76.76s-.34.76-.76.76Z"/>
          <path class="cls-2" d="M51.49,162.46h-24.16c-.42,0-.76-.34-.76-.76s.34-.76.76-.76h24.16c.42,0,.76.34.76.76s-.34.76-.76.76Z"/>
          <path class="cls-39" d="M70.9,162.46h-11.35c-.42,0-.76-.34-.76-.76s.34-.76.76-.76h11.35c.42,0,.76.34.76.76s-.34.76-.76.76Z"/>
          <path class="cls-1" d="M67.97,169.7h-20.14c-.42,0-.76-.34-.76-.76s.34-.76.76-.76h20.14c.42,0,.76.34.76.76s-.34.76-.76.76Z"/>
          <path class="cls-56" d="M180.22,168.04h-10.39c-.42,0-.76-.34-.76-.76s.34-.76.76-.76h10.39c.42,0,.76.34.76.76s-.34.76-.76.76Z"/>
          <path class="cls-42" d="M210.46,168.04h-20.23c-.42,0-.76-.34-.76-.76s.34-.76.76-.76h20.23c.42,0,.76.34.76.76s-.34.76-.76.76Z"/>
          <path class="cls-61" d="M196.55,160.71h-16.33c-.42,0-.76-.34-.76-.76s.34-.76.76-.76h16.33c.42,0,.76.34.76.76s-.34.76-.76.76Z"/>
          <g>
            <path class="cls-47" d="M54.75,68.43c-.34,0-.65-.23-.74-.57-1.24-4.68-5.5-7.95-10.35-7.95-1.45,0-2.85.28-4.17.84-.39.17-.84-.02-1-.41s.02-.84.41-1c1.51-.64,3.11-.96,4.76-.96,5.54,0,10.41,3.74,11.83,9.09.11.41-.13.83-.54.93-.07.02-.13.03-.2.03Z"/>
            <path class="cls-41" d="M65.99,82.85H24.42c-.42,0-.76-.34-.76-.76s.34-.76.76-.76h41.57c2.47,0,4.49-2.01,4.49-4.49s-2.01-4.49-4.49-4.49c-.41,0-.81.05-1.2.16-.39.11-.8-.11-.93-.49,0-.01,0-.03-.01-.04-1.05-2.52-3.49-4.14-6.22-4.14s-5.15,1.62-6.21,4.12c-.16.39-.61.57-1,.41-.39-.16-.57-.61-.41-1,1.3-3.07,4.29-5.05,7.62-5.05s6.01,1.78,7.4,4.58c.32-.05.64-.08.96-.08,3.32,0,6.01,2.7,6.01,6.01s-2.7,6.01-6.01,6.01Z"/>
            <path class="cls-50" d="M39.72,70.38c-.05,0-.1,0-.15-.02-.41-.08-.68-.49-.59-.9.2-.98.3-1.99.3-2.99,0-3.07-.93-6.02-2.69-8.52-.24-.34-.16-.82.19-1.06.35-.24.82-.16,1.06.19,1.94,2.76,2.96,6.01,2.96,9.4,0,1.11-.11,2.22-.33,3.3-.07.36-.39.61-.75.61Z"/>
          </g>
          <path class="cls-32" d="M44.72,119.71h-10.38c-.42,0-.76-.34-.76-.76s.34-.76.76-.76h10.38c.42,0,.76.34.76.76s-.34.76-.76.76Z"/>
          <path class="cls-58" d="M49.38,127.39h-9.65c-.42,0-.76-.34-.76-.76s.34-.76.76-.76h9.65c.42,0,.76.34.76.76s-.34.76-.76.76Z"/>
        </g>
        <g>
          <g>
            <path class="cls-33" d="M136.81,36h-11.35c-.39,0-.71-.32-.71-.71s.32-.71.71-.71h11.35c.39,0,.71.32.71.71s-.32.71-.71.71Z"/>
            <path class="cls-11" d="M145.18,41.29h-11.35c-.39,0-.71-.32-.71-.71s.32-.71.71-.71h11.35c.39,0,.71.32.71.71s-.32.71-.71.71Z"/>
          </g>
          <g>
            <path class="cls-22" d="M117.8,249.8c-12.51,0-25.02-3.22-36.18-9.66l-45.44-26.24C13.86,201.02,0,177,0,151.24v-52.47c0-25.77,13.86-49.78,36.18-62.66l45.44-26.24c22.32-12.88,50.04-12.88,72.36,0l45.44,26.24c22.32,12.88,36.18,36.9,36.18,62.66v52.47c0,25.77-13.86,49.78-36.18,62.66l-45.44,26.24c-11.16,6.44-23.67,9.66-36.18,9.66ZM117.8,3.25c-11.98,0-23.97,3.08-34.65,9.25l-45.44,26.24C16.33,51.09,3.05,74.08,3.05,98.76v52.47c0,24.68,13.28,47.68,34.65,60.02l45.44,26.24c21.37,12.34,47.93,12.34,69.3,0l45.44-26.24c21.37-12.34,34.65-35.34,34.65-60.02v-52.47c0-24.68-13.28-47.68-34.65-60.02l-45.44-26.24c-10.69-6.17-22.67-9.25-34.65-9.25Z"/>
            <g>
              <path class="cls-15" d="M81.5,61.61c-.39,0-.71-.32-.71-.71v-16.51c0-.39.32-.71.71-.71s.71.32.71.71v16.51c0,.39-.32.71-.71.71Z"/>
              <path class="cls-3" d="M89.75,53.35h-16.51c-.39,0-.71-.32-.71-.71s.32-.71.71-.71h16.51c.39,0,.71.32.71.71s-.32.71-.71.71Z"/>
            </g>
            <g>
              <path class="cls-40" d="M95.77,81.76c-.39,0-.71-.32-.71-.71v-10.11c0-.39.32-.71.71-.71s.71.32.71.71v10.11c0,.39-.32.71-.71.71Z"/>
              <path class="cls-25" d="M100.83,76.7h-10.11c-.39,0-.71-.32-.71-.71s.32-.71.71-.71h10.11c.39,0,.71.32.71.71s-.32.71-.71.71Z"/>
            </g>
            <g>
              <path class="cls-59" d="M104.24,41.05c-.39,0-.71-.32-.71-.71v-10.11c0-.39.32-.71.71-.71s.71.32.71.71v10.11c0,.39-.32.71-.71.71Z"/>
              <path class="cls-54" d="M109.29,36h-10.11c-.39,0-.71-.32-.71-.71s.32-.71.71-.71h10.11c.39,0,.71.32.71.71s-.32.71-.71.71Z"/>
            </g>
            <path class="cls-35" d="M209.92,88.1h-29.7c-.39,0-.71-.32-.71-.71s.32-.71.71-.71h29.7c.39,0,.71.32.71.71s-.32.71-.71.71Z"/>
            <path class="cls-29" d="M216.18,93.52h-12.53c-.39,0-.71-.32-.71-.71s.32-.71.71-.71h12.53c.39,0,.71.32.71.71s-.32.71-.71.71Z"/>
            <g>
              <path class="cls-24" d="M214.5,81.53h-44.67c-.39,0-.71-.32-.71-.71s.32-.71.71-.71h44.67c.39,0,.71.32.71.71s-.32.71-.71.71Z"/>
              <path class="cls-49" d="M177.09,66.36c-.32,0-.61-.21-.69-.53-.1-.38.13-.77.51-.87,1.08-.28,2.24-.34,3.35-.18.32-5.21,4.67-9.36,9.96-9.36,4.07,0,7.73,2.51,9.25,6.22.74-.51,1.55-.93,2.4-1.24.37-.14.78.05.91.42.14.37-.05.78-.42.91-1,.37-1.93.9-2.75,1.59-.07.07-.16.12-.26.16-.32.11-.68-.03-.85-.33-.03-.06-.06-.13-.07-.19-1.07-3.6-4.44-6.11-8.2-6.11-4.72,0-8.56,3.84-8.56,8.56v.23c0,.22-.09.44-.27.57-.17.14-.4.19-.62.13-1.15-.3-2.38-.29-3.51,0-.06.02-.12.02-.18.02Z"/>
            </g>
            <path class="cls-16" d="M214.57,123.97h-17.66c-.39,0-.71-.32-.71-.71s.32-.71.71-.71h17.66c.39,0,.71.32.71.71s-.32.71-.71.71Z"/>
            <path class="cls-31" d="M211.95,131.1h-9.65c-.39,0-.71-.32-.71-.71s.32-.71.71-.71h9.65c.39,0,.71.32.71.71s-.32.71-.71.71Z"/>
            <path class="cls-19" d="M117.8,239.28c-9.95,0-19.9-2.56-28.78-7.69l-49.15-28.38c-17.75-10.25-28.78-29.35-28.78-49.84v-56.75c0-20.5,11.03-39.6,28.78-49.84l49.15-28.38c17.75-10.25,39.8-10.25,57.56,0l49.15,28.38c17.75,10.25,28.78,29.35,28.78,49.84v56.75c0,20.5-11.03,39.6-28.78,49.84l-49.15,28.38c-8.87,5.12-18.83,7.69-28.78,7.69ZM117.8,13.77c-9.42,0-18.85,2.43-27.25,7.28l-49.15,28.38c-16.81,9.7-27.25,27.79-27.25,47.2v56.75c0,19.41,10.44,37.49,27.25,47.2l49.15,28.38c16.81,9.7,37.69,9.7,54.5,0l49.15-28.38c16.81-9.71,27.25-27.79,27.25-47.2v-56.75c0-19.41-10.44-37.49-27.25-47.2l-49.15-28.38c-8.4-4.85-17.83-7.28-27.25-7.28Z"/>
            <path class="cls-14" d="M216.77,180.52H18.83c-.84,0-1.53-.68-1.53-1.53s.68-1.53,1.53-1.53h197.94c.84,0,1.53.68,1.53,1.53s-.68,1.53-1.53,1.53Z"/>
            <g>
              <path class="cls-55" d="M145.22,71.31s-.05,0-.07,0c-.39-.04-.68-.39-.64-.78.1-.95.1-3.69-1.01-4.93-.4-.44-.9-.65-1.55-.65-3.3,0-4.13,4.14-4.14,4.18-.07.39-.44.64-.83.56-.39-.07-.64-.45-.56-.83.35-1.84,1.97-5.34,5.54-5.34,1.06,0,1.93.38,2.6,1.12,1.77,1.96,1.39,5.86,1.37,6.03-.04.37-.35.64-.71.64Z"/>
              <g>
                <path class="cls-5" d="M130.47,100.53s-.07,0-.1,0c-7.27-1.01-9.33-1.58-14.68-5.34-6.18-4.35-6-12.58-3.08-18.8,2.9-6.18,8.95-8.52,20.92-8.09,5.43.2,12.84,1.11,17.29,4.33.32.23.41.69.18,1.01-.23.32-.66.41-.98.17,0,0-.04-.03-.04-.03-4.17-3.02-11.28-3.87-16.51-4.06-11.29-.41-16.97,1.7-19.58,7.27-2.67,5.69-2.9,13.16,2.61,17.03,5.13,3.61,6.96,4.11,14.05,5.1.39.05.66.41.61.8-.05.36-.35.61-.7.61Z"/>
                <path class="cls-10" d="M125.53,114.55c-2.77,0-6.48-.22-9.55-1.19-6.05-1.91-4.79-7.88-4.78-7.94.02-.09.06-.17.11-.25.05-.07,1.26-1.84,3.09-3.87,1.82-2.03,4.87-4.78,5-4.89.29-.26.74-.24,1.01.05.26.29.24.74-.05,1.01-.03.03-3.12,2.82-4.89,4.79-1.5,1.66-2.59,3.17-2.89,3.6-.13.78-.57,4.75,3.84,6.14,5.29,1.67,12.96.97,13.04.97.39-.03.74.25.78.64s-.25.74-.64.78c-.15.01-1.79.16-4.05.16Z"/>
                <path class="cls-26" d="M120.81,92.43c-1.94,0-3.41-.64-4.35-1.9-2.1-2.8-.72-7.65-.66-7.86.11-.38.51-.59.88-.48.38.11.59.5.49.88-.01.04-1.24,4.37.44,6.6.67.89,1.72,1.33,3.21,1.33,2.28,0,4.1-1.05,5.39-3.12.21-.33.64-.44.98-.23.33.21.43.65.23.98-1.55,2.48-3.83,3.79-6.6,3.79Z"/>
                <path class="cls-51" d="M114.13,91.11c-.76,0-1.55-.42-2.38-1.25-.28-.28-.27-.73,0-1.01.28-.28.73-.27,1.01,0,.62.63,1.16.91,1.54.8.6-.17,1.04-1.32,1.16-1.85.09-.38.46-.62.85-.54.38.08.63.46.54.85-.05.25-.58,2.45-2.15,2.91-.19.05-.38.08-.57.08Z"/>
                <path class="cls-7" d="M144.39,81.95c-.31,0-.6-.21-.69-.52,0-.02-.71-2.44-2.65-2.73-2-.29-3.37,1.46-3.38,1.48-.24.31-.69.37-1,.13-.31-.24-.37-.69-.13-1,.08-.1,1.92-2.44,4.72-2.02,2.86.43,3.77,3.62,3.81,3.76.11.38-.12.77-.5.88-.06.02-.13.03-.19.03Z"/>
                <path class="cls-21" d="M145.34,77.07c-.2,0-.4-.08-.54-.25-1.88-2.18-5.36-1.85-5.4-1.84-.41.04-.74-.24-.78-.63-.04-.39.24-.74.63-.78.18-.02,4.25-.42,6.62,2.33.26.3.22.75-.07,1-.13.12-.3.17-.47.17Z"/>
                <path class="cls-53" d="M152.7,82.33c-.32,0-.6-.21-.69-.53-.1-.38.12-.77.5-.87,4.95-1.33,6.84-4.45,6.51-6.95-.23-1.73-1.46-2.9-3.07-2.9-4.41,0-6.53,5.13-6.55,5.18-.15.37-.56.54-.93.39-.36-.15-.54-.56-.39-.93.1-.25,2.51-6.08,7.87-6.08,2.32,0,4.17,1.7,4.49,4.14.41,3.12-1.77,6.97-7.55,8.51-.06.02-.12.02-.18.02Z"/>
                <path class="cls-27" d="M151.59,79c-.06,0-.12,0-.19-.02-.38-.1-.6-.49-.5-.87.03-.13.88-3.15,4.77-5.09.35-.17.78-.03.96.32s.03.78-.32.96c-3.29,1.65-4.01,4.09-4.03,4.19-.09.31-.37.52-.69.52Z"/>
                <path class="cls-43" d="M144.71,100.21c-.2,0-.4-.09-.54-.25-.25-.3-.21-.75.09-1,2.72-2.28,2.01-4.44,1.98-4.53-.13-.37.06-.78.43-.91.36-.13.77.05.91.42.05.13,1.12,3.15-2.4,6.11-.13.11-.3.17-.46.17Z"/>
                <path class="cls-36" d="M152.09,96.76c-.06,0-.13,0-.19-.03-.38-.11-.6-.5-.49-.88,1.16-4.14-.58-6.45-.65-6.54-.24-.31-.19-.76.12-1,.31-.24.75-.19,1,.12.09.12,2.28,2.94.9,7.81-.09.31-.37.52-.68.52Z"/>
                <path class="cls-20" d="M139.88,118.19c-.35,0-.65-.26-.7-.61-.06-.39.22-.75.61-.8,5.85-.83,10.99-1.96,15.28-3.37,4.32-1.42,7.04-5.57,6.63-10.09-.35-3.81-.98-7.25-1.87-10.22-2.12-7.03-3.94-11.37-4.45-12.54-.16-.36,0-.78.37-.94.36-.16.78,0,.94.37.52,1.18,2.37,5.6,4.51,12.7.92,3.07,1.57,6.6,1.93,10.51.47,5.19-2.65,9.95-7.6,11.57-4.37,1.44-9.59,2.59-15.52,3.43-.03,0-.07,0-.1,0Z"/>
                <path class="cls-4" d="M119.22,81.23c-.21,0-.42-.09-.56-.27-.25-.31-.19-.76.11-1,.09-.07,2.2-1.72,4.77-1.24.39.07.64.45.57.83-.07.39-.46.63-.83.57-1.93-.37-3.6.94-3.62.95-.13.1-.29.16-.44.16Z"/>
                <path class="cls-34" d="M115.68,80.31c-.3,0-.58-.19-.68-.49-.01-.04-.62-1.83-2.04-2.48-.36-.17-.51-.59-.35-.95.17-.36.59-.51.95-.35,2.01.93,2.77,3.25,2.8,3.34.12.37-.09.78-.46.89-.07.02-.15.03-.22.03Z"/>
                <path class="cls-17" d="M126.25,123.19c-.38,0-.73-.15-1.02-.43-.39-.39-.54-.99-.45-1.8.3-2.63,3.4-7.96,7.76-10.65,6.17-3.8,12.64-4.37,12.92-4.4.39-.02.73.26.77.65.03.39-.26.74-.65.77-.06,0-6.42.57-12.29,4.19-3.83,2.36-6.6,7-7.04,9.3-.14.72,0,.92,0,.92.16-.01.58-.33.82-.66.23-.32.67-.4.99-.17.32.23.39.67.17.99-.14.2-.89,1.19-1.84,1.27-.04,0-.09,0-.13,0Z"/>
                <path class="cls-9" d="M128.33,125.26c-.38,0-.72-.14-1-.42-.5-.49-.75-1.17-.73-1.96.03-1.47,1.01-3.23,2.53-4.61.29-.26.74-.24,1,.05.26.29.24.74-.05,1-1.23,1.11-2.04,2.51-2.06,3.59,0,.4.09.7.31.92.12,0,.53-.25.81-.58.25-.3.7-.34,1-.09.3.25.34.7.09,1-.15.17-.92,1.05-1.83,1.09-.02,0-.05,0-.07,0Z"/>
                <path class="cls-38" d="M130.97,125.98c-.06,0-.12,0-.18,0-.92-.09-1.56-.59-1.77-1.38-.38-1.45.84-3.57,2.19-4.5.33-.22.77-.14.99.18.22.32.14.77-.18.99-.95.66-1.81,2.24-1.62,2.97.02.1.07.28.52.32.62.03,1.59-1.31,2.47-2.51,1.56-2.14,3.51-4.8,6.47-5.29.39-.06.76.2.82.58.07.39-.2.76-.58.82-2.39.4-4.14,2.8-5.56,4.73-1.26,1.72-2.27,3.1-3.58,3.1Z"/>
              </g>
            </g>
          </g>
        </g>
      </g>
    </g>
  </g>
</svg>